# xmcd
#
# Track frame offsets:
#	150
#	18679
#	34576
#	52411
#	66933
#	84410
#	104230
#	119847
#	134679
#	155459
#
# Disc length: 2304 seconds
#
# Revision: 0
# Processed by: cddbd v1.5.2PL0 Copyright (c) Steve Scherf et al.
# Submitted via: audiograbber 1.83.01
#
DISCID=9b08fe0a
DTITLE=Lou Rawls - When You Heard Lou, You've Heard It all
DYEAR=1976
DGENRE=Soul
TTITLE0=Lady Love
TTITLE1=I wish It Were Yesterday
TTITLE2=One Life To Live
TTITLE3=Dollar Green
TTITLE4=Trade Winds
TTITLE5=There Will be Love
TTITLE6=Unforgettable
TTITLE7=That Would Do It for Me
TTITLE8=If I Coulda, Woulda,Shoulda
TTITLE9=Not the Staying Kind
EXTD=
EXTT0=
EXTT1=
EXTT2=
EXTT3=
EXTT4=
EXTT5=
EXTT6=
EXTT7=
EXTT8=
EXTT9=
PLAYORDER=
